<svg xmlns="http://www.w3.org/2000/svg" viewBox="0 0 64 64" fill="none">
  <rect width="64" height="64" rx="16" fill="#1A1208"/>
  <path d="M32 16 C32 16 17.5 17.5 12.5 23 L12.5 46.5 C17.5 41.5 29 40 32 43 Z" fill="#D4A92A" opacity="0.9"/>
  <path d="M32 16 C32 16 46.5 17.5 51.5 23 L51.5 46.5 C46.5 41.5 35 40 32 43 Z" fill="#D4A92A" opacity="0.62"/>
  <path d="M32 16 L32 43" stroke="#F5E6B8" stroke-width="1.5" stroke-linecap="round"/>
  <line x1="19" y1="29" x2="30" y2="28.5" stroke="#F5E6B8" stroke-width="1.2" stroke-linecap="round" opacity="0.45"/>
  <line x1="18.5" y1="33" x2="30" y2="32.5" stroke="#F5E6B8" stroke-width="1.2" stroke-linecap="round" opacity="0.3"/>
  <line x1="18.5" y1="37" x2="29.5" y2="36.5" stroke="#F5E6B8" stroke-width="1.2" stroke-linecap="round" opacity="0.2"/>
  <path d="M46 15 L46 30.5 L42.8 27.5 L39.5 30.5 L39.5 15 Z" fill="#A63248"/>
</svg>
