<svg xmlns="http://www.w3.org/2000/svg" viewBox="0 0 340 56" fill="none">
  <rect width="56" height="56" rx="14" fill="#251C0A"/>
  <rect x="0.5" y="0.5" width="55" height="55" rx="13.5" stroke="#3A2E18" stroke-width="1"/>
  <path d="M28 14 C28 14 15 15.5 11 20 L11 40.5 C15 37 25.5 35.5 28 37.5 Z" fill="#D4A92A" opacity="0.9"/>
  <path d="M28 14 C28 14 41 15.5 45 20 L45 40.5 C41 37 30.5 35.5 28 37.5 Z" fill="#D4A92A" opacity="0.62"/>
  <line x1="28" y1="14" x2="28" y2="37.5" stroke="#F5E6B8" stroke-width="1.4" stroke-linecap="round"/>
  <line x1="16.5" y1="25" x2="26.5" y2="24.6" stroke="#F5E6B8" stroke-width="1.1" stroke-linecap="round" opacity="0.45"/>
  <line x1="16" y1="28.5" x2="26.5" y2="28.1" stroke="#F5E6B8" stroke-width="1.1" stroke-linecap="round" opacity="0.3"/>
  <line x1="16" y1="32" x2="26" y2="31.7" stroke="#F5E6B8" stroke-width="1.1" stroke-linecap="round" opacity="0.2"/>
  <path d="M40 13 L40 26.5 L37.3 24 L34.5 26.5 L34.5 13 Z" fill="#A63248"/>
  <text x="68" y="34" font-family="Georgia, 'Times New Roman', serif" font-size="28" font-weight="500" letter-spacing="-0.8" fill="#F5E6B8">Keert</text>
  <text x="173" y="34" font-family="Georgia, 'Times New Roman', serif" font-size="28" font-weight="500" letter-spacing="-0.8" fill="#D4A92A">a</text>
  <text x="186" y="34" font-family="Georgia, 'Times New Roman', serif" font-size="28" font-weight="500" letter-spacing="-0.8" fill="#F5E6B8">nalu</text>
  <text x="68" y="50" font-family="system-ui, -apple-system, sans-serif" font-size="10" font-weight="400" letter-spacing="2.5" fill="#8C7850">CHRISTIAN LYRICS</text>
</svg>
