<svg xmlns="http://www.w3.org/2000/svg" viewBox="0 0 1200 630" fill="none">
  <!-- Background -->
  <rect width="1200" height="630" fill="#1A1208"/>
  <!-- Subtle grain texture via pattern -->
  <rect width="1200" height="630" fill="#0E0A04" opacity="0.3"/>

  <!-- Large decorative book mark — background -->
  <path d="M820 -20 C820 -20 600 20 500 160 L500 680 C600 560 760 520 820 580 Z" fill="#D4A92A" opacity="0.07"/>
  <path d="M820 -20 C820 -20 1040 20 1140 160 L1140 680 C1040 560 880 520 820 580 Z" fill="#D4A92A" opacity="0.04"/>

  <!-- Icon - large -->
  <rect x="80" y="180" width="160" height="160" rx="36" fill="#251C0A"/>
  <rect x="80.5" y="180.5" width="159" height="159" rx="35.5" fill="none" stroke="#3A2E18" stroke-width="1"/>
  <path d="M160 210 C160 210 115 214 100 228 L100 318 C115 304 152 300 160 308 Z" fill="#D4A92A" opacity="0.9"/>
  <path d="M160 210 C160 210 205 214 220 228 L220 318 C205 304 168 300 160 308 Z" fill="#D4A92A" opacity="0.62"/>
  <line x1="160" y1="210" x2="160" y2="308" stroke="#F5E6B8" stroke-width="4" stroke-linecap="round"/>
  <line x1="118" y1="256" x2="157" y2="254" stroke="#F5E6B8" stroke-width="3.5" stroke-linecap="round" opacity="0.45"/>
  <line x1="116" y1="270" x2="157" y2="268" stroke="#F5E6B8" stroke-width="3.5" stroke-linecap="round" opacity="0.3"/>
  <line x1="116" y1="285" x2="156" y2="283" stroke="#F5E6B8" stroke-width="3.5" stroke-linecap="round" opacity="0.2"/>
  <path d="M205 208 L205 248 L197 241 L189 248 L189 208 Z" fill="#A63248"/>

  <!-- Wordmark -->
  <text x="80" y="430" font-family="Georgia, 'Times New Roman', serif" font-size="96" font-weight="500" letter-spacing="-3" fill="#F5E6B8">Keert</text>
  <text x="437" y="430" font-family="Georgia, 'Times New Roman', serif" font-size="96" font-weight="500" letter-spacing="-3" fill="#D4A92A">a</text>
  <text x="475" y="430" font-family="Georgia, 'Times New Roman', serif" font-size="96" font-weight="500" letter-spacing="-3" fill="#F5E6B8">nalu</text>

  <!-- Tagline -->
  <text x="80" y="490" font-family="system-ui, sans-serif" font-size="22" font-weight="400" letter-spacing="6" fill="#8C7850">CHRISTIAN LYRICS · TELUGU · TAMIL · HINDI · ENGLISH</text>

  <!-- Divider -->
  <line x1="80" y1="516" x2="520" y2="516" stroke="#3A2E18" stroke-width="1"/>

  <!-- Stats -->
  <text x="80" y="556" font-family="Georgia, serif" font-size="28" font-weight="500" fill="#D4A92A">2,400+</text>
  <text x="185" y="556" font-family="system-ui, sans-serif" font-size="18" fill="#5A4E38"> Songs</text>
  <text x="310" y="556" font-family="Georgia, serif" font-size="28" font-weight="500" fill="#D4A92A">120+</text>
  <text x="390" y="556" font-family="system-ui, sans-serif" font-size="18" fill="#5A4E38"> Artists</text>
</svg>
